<?xml version="1.0" standalone="no"?>
<!DOCTYPE svg PUBLIC "-//W3C//DTD SVG 20010904//EN"
 "http://www.w3.org/TR/2001/REC-SVG-20010904/DTD/svg10.dtd">
<svg version="1.0" xmlns="http://www.w3.org/2000/svg"
 width="264px" height="70px" viewBox="0 0 456.000000 102.000000"
 preserveAspectRatio="xMidYMid meet">

<g transform="translate(0.000000,102.000000) scale(0.100000,-0.100000)"
fill="#000000" stroke="none">
<path d="M2800 1004 c-42 -18 -86 -59 -106 -96 -22 -43 -17 -47 29 -24 39 19
58 21 242 21 l200 0 0 -75 0 -75 -198 -5 c-161 -4 -200 -8 -207 -20 -25 -39
-15 -46 184 -149 87 -45 171 -90 186 -101 35 -25 80 -113 80 -155 0 -81 -49
-156 -124 -191 -47 -22 -63 -24 -218 -24 -93 0 -168 -4 -168 -8 0 -4 15 -22
33 -40 64 -62 68 -62 489 -62 430 0 431 1 496 74 39 45 41 59 6 46 -14 -6
-122 -10 -240 -10 l-214 0 0 75 0 75 203 0 c167 0 206 3 225 16 22 15 29 48
14 70 -4 6 -86 52 -182 103 -115 60 -186 103 -206 126 -88 99 -58 248 63 306
42 20 67 24 201 27 83 3 152 8 152 11 0 15 -67 71 -102 85 -55 23 -785 23
-838 0z"/>
<path d="M173 885 c-51 -22 -119 -91 -144 -148 -22 -48 -24 -68 -27 -241 -4
-212 3 -253 51 -311 55 -67 85 -75 310 -75 l197 0 0 75 0 75 -189 0 c-185 0
-190 1 -205 22 -25 35 -23 349 2 397 34 69 55 76 233 79 l159 3 0 70 0 69
-177 0 c-129 -1 -187 -5 -210 -15z"/>
<path d="M762 885 c-56 -25 -98 -63 -128 -117 l-29 -53 -3 -215 c-4 -237 1
-270 49 -325 49 -55 97 -68 246 -63 115 3 133 6 180 31 52 27 84 61 119 127
17 31 19 60 19 265 0 259 -2 267 -78 329 l-39 31 -151 2 c-116 2 -160 -1 -185
-12z m286 -141 c21 -15 22 -20 22 -201 0 -266 -11 -283 -192 -283 -68 0 -108
4 -116 12 -9 9 -12 69 -12 209 0 186 1 198 22 224 32 41 73 54 168 55 62 0 92
-4 108 -16z"/>
<path d="M1282 608 l3 -293 27 -51 c29 -56 68 -93 132 -127 37 -20 59 -22 239
-25 l197 -4 0 76 0 76 -171 0 c-192 0 -224 8 -259 65 -19 30 -20 49 -20 304
l0 271 -76 0 -75 0 3 -292z"/>
<path d="M2082 885 c-56 -25 -98 -63 -128 -117 l-29 -53 -3 -215 c-4 -237 1
-270 49 -325 49 -55 97 -68 246 -63 115 3 133 6 180 31 52 27 84 61 119 127
17 31 19 60 19 265 0 259 -2 267 -78 329 l-39 31 -151 2 c-116 2 -160 -1 -185
-12z m286 -141 c21 -15 22 -20 22 -201 0 -266 -11 -283 -192 -283 -68 0 -108
4 -116 12 -9 9 -12 69 -12 209 0 186 1 198 22 224 32 41 73 54 168 55 62 0 92
-4 108 -16z"/>
<path d="M4102 885 c-56 -25 -98 -63 -128 -117 l-29 -53 -3 -215 c-4 -237 1
-270 49 -325 49 -55 97 -68 246 -63 115 3 133 6 180 31 52 27 84 61 119 127
17 31 19 60 19 265 0 259 -2 267 -78 329 l-39 31 -151 2 c-116 2 -160 -1 -185
-12z m286 -141 c21 -15 22 -20 22 -201 0 -266 -11 -283 -192 -283 -68 0 -108
4 -116 12 -9 9 -12 69 -12 209 0 186 1 198 22 224 32 41 73 54 168 55 62 0 92
-4 108 -16z"/>
<path d="M3436 734 c-21 -20 -20 -37 2 -56 15 -13 328 -178 338 -178 2 0 4 56
4 125 l0 125 -164 0 c-136 0 -167 -3 -180 -16z"/>
<path d="M2660 410 l0 -150 173 0 c140 0 177 3 195 16 22 15 29 48 14 70 -4 6
-74 47 -157 90 -82 43 -167 88 -187 101 l-38 23 0 -150z"/>
</g>
</svg>
